<svg width="198" height="198" viewBox="0 0 198 198" fill="none" xmlns="http://www.w3.org/2000/svg">
<g id="Icon  9">
<g id="Border" opacity="0.2">
<rect id="Shape" x="3" y="3" width="192" height="192" rx="16" stroke="#7767E4"/>
</g>
<g id="Loader 1">
<g id="Group">
<g id="Group_2">
<g id="Group_3">
<path id="Vector" opacity="0.3" fill-rule="evenodd" clip-rule="evenodd" d="M78.9998 59.0002C81.7498 59.0002 83.9998 61.2002 83.9998 64.0002V124H129C131.75 124 134 126.2 134 129C134 131.75 131.75 134 129 134H83.9998C81.1998 134 78.9998 131.75 78.9998 129C76.1998 129 73.9998 126.75 73.9998 124V69.0002H63.9999C61.1999 69.0002 58.9999 66.7502 58.9999 64.0002C58.9999 61.2002 61.1999 59.0002 63.9999 59.0002H78.9998Z" fill="#7767E4"/>
<path id="Vector_2" opacity="0.3" d="M134 94.0002C134 82.9545 125.045 74.0002 114 74.0002C102.954 74.0002 93.9998 82.9545 93.9998 94.0002C93.9998 105.046 102.954 114 114 114C125.045 114 134 105.046 134 94.0002Z" fill="#7767E4"/>
<path id="Vector_3" fill-rule="evenodd" clip-rule="evenodd" d="M78.9998 114C75.0216 114 71.2063 115.58 68.3932 118.393C65.5802 121.206 63.9998 125.022 63.9998 129C63.9998 132.978 65.5802 136.793 68.3932 139.607C71.2063 142.42 75.0216 144 78.9998 144C82.978 144 86.7933 142.42 89.6063 139.607C92.4194 136.793 93.9997 132.978 93.9997 129C93.9997 125.022 92.4194 121.206 89.6063 118.393C86.7933 115.58 82.978 114 78.9998 114Z" fill="#7767E4"/>
</g>
</g>
</g>
</g>
</g>
</svg>
