<svg width="66" height="66" viewBox="0 0 66 66" fill="none" xmlns="http://www.w3.org/2000/svg">
<g id="Icon  9">
<g id="Border" opacity="0.2">
<rect id="Shape" x="1" y="1" width="64" height="64" rx="16" stroke="#7767E4"/>
</g>
<g id="Loader 1">
<g id="Group">
<g id="Group_2">
<g id="Group_3">
<path id="Vector" opacity="0.3" fill-rule="evenodd" clip-rule="evenodd" d="M26.3333 19.6667C27.2499 19.6667 27.9999 20.4001 27.9999 21.3334V41.3333H42.9999C43.9165 41.3333 44.6665 42.0667 44.6665 43C44.6665 43.9167 43.9165 44.6666 42.9999 44.6666H27.9999C27.0666 44.6666 26.3333 43.9167 26.3333 43C25.3999 43 24.6666 42.25 24.6666 41.3333V23.0001H21.3333C20.4 23.0001 19.6666 22.2501 19.6666 21.3334C19.6666 20.4001 20.4 19.6667 21.3333 19.6667H26.3333Z" fill="#7767E4"/>
<path id="Vector_2" opacity="0.3" d="M44.6665 31.3334C44.6665 27.6515 41.6818 24.6667 37.9999 24.6667C34.318 24.6667 31.3333 27.6515 31.3333 31.3334C31.3333 35.0153 34.318 38 37.9999 38C41.6818 38 44.6665 35.0153 44.6665 31.3334Z" fill="#7767E4"/>
<path id="Vector_3" fill-rule="evenodd" clip-rule="evenodd" d="M26.3333 38C25.0072 38 23.7354 38.5268 22.7977 39.4645C21.8601 40.4021 21.3333 41.6739 21.3333 43C21.3333 44.3261 21.8601 45.5978 22.7977 46.5355C23.7354 47.4732 25.0072 48 26.3333 48C27.6593 48 28.9311 47.4732 29.8688 46.5355C30.8065 45.5978 31.3332 44.3261 31.3332 43C31.3332 41.6739 30.8065 40.4021 29.8688 39.4645C28.9311 38.5268 27.6593 38 26.3333 38Z" fill="#7767E4"/>
</g>
</g>
</g>
</g>
</g>
</svg>
