<svg width="198" height="198" viewBox="0 0 198 198" fill="none" xmlns="http://www.w3.org/2000/svg">
<g id="Icon  9">
<g id="Border" opacity="0.2">
<rect id="Shape" x="3" y="3" width="192" height="192" rx="16" stroke="white"/>
</g>
<g id="Chef 1">
<g id="Group">
<g id="Group_2">
<g id="Group_3">
<path id="Vector" opacity="0.3" d="M129 139H69.0002C66.2388 139 64.0002 141.239 64.0002 144C64.0002 146.762 66.2388 149 69.0002 149H129C131.761 149 134 146.762 134 144C134 141.239 131.761 139 129 139Z" fill="white"/>
<path id="Vector_2" fill-rule="evenodd" clip-rule="evenodd" d="M64.0002 103.35C55.3503 101.1 49.0003 93.2504 49.0003 83.9505C49.0003 72.9005 57.9503 63.9506 69.0002 63.9506C69.5502 63.9506 70.1002 63.9506 70.6502 64.0006C74.7002 52.3006 85.8502 43.9006 98.9501 43.9006C112 43.9006 123.15 52.2506 127.25 63.9506C127.8 63.9006 128.35 63.8506 128.9 63.8506C139.9 63.8506 148.9 72.8005 148.9 83.8505C148.9 93.1504 142.5 100.95 133.9 103.2V123.8C133.9 126.55 131.65 128.8 128.9 128.8H68.9002C66.1002 128.8 63.9002 126.55 63.9002 123.8V103.15L64.0002 103.35Z" fill="white"/>
</g>
</g>
</g>
</g>
</g>
</svg>
