<svg width="132" height="198" viewBox="0 0 132 198" fill="none" xmlns="http://www.w3.org/2000/svg">
<g id="Icon  9">
<g id="Border" opacity="0.2">
<rect id="Shape" x="3" y="3" width="192" height="192" rx="16" stroke="#7767E4"/>
</g>
<g id="Chef 1">
<g id="Truck 1" clip-path="url(#clip0_1_695)">
<g id="Group">
<g id="Group_2">
<path id="Vector" opacity="0.4" d="M77.4 113.4H77.3985C70.77 113.4 65.3985 118.772 65.3985 125.4C65.3985 132.027 70.77 137.4 77.3985 137.399C84.0255 137.397 89.3985 132.026 89.397 125.397C89.397 118.769 84.024 113.397 77.397 113.397L77.4 113.4ZM120.6 113.4H120.598C113.97 113.4 108.599 118.772 108.599 125.4C108.599 132.027 113.97 137.4 120.598 137.399C127.226 137.397 132.598 132.026 132.597 125.397C132.597 118.769 127.224 113.397 120.597 113.397L120.6 113.4Z" fill="#7767E4"/>
<path id="Vector_2" d="M144.6 113.4H142.2V97.185C142.195 95.2755 141.435 93.447 140.085 92.0985L125.098 77.112C123.75 75.7605 121.921 75 120.013 74.9955H113.397V67.7955C113.397 63.819 110.172 60.5955 106.197 60.5955H58.1969H58.1954C54.2189 60.5955 50.9954 63.819 50.9954 67.7955V115.795C50.9954 119.77 54.2189 122.994 58.1954 122.994H60.9194C62.0939 114.883 68.9609 108.594 77.3939 108.594C85.8269 108.594 92.7749 114.873 93.9509 122.994H104.037C105.214 114.873 112.152 108.594 120.594 108.594C129.036 108.594 135.894 114.883 137.07 122.994H144.594H144.592C145.917 122.994 146.992 121.918 146.992 120.594V115.794C146.992 114.468 145.917 113.394 144.592 113.394L144.6 113.4ZM135 99H113.4V82.2H120.015L135 97.185V99Z" fill="#7767E4"/>
</g>
</g>
</g>
</g>
</g>
<defs>
<clipPath id="clip0_1_695">
<rect width="32" height="32" fill="white" transform="translate(51 51) scale(3)"/>
</clipPath>
</defs>
</svg>
