<svg width="66" height="66" viewBox="0 0 66 66" fill="none" xmlns="http://www.w3.org/2000/svg">
<g id="Icon  9">
<g id="Border" opacity="0.2">
<rect id="Shape" x="1" y="1" width="64" height="64" rx="16" stroke="white"/>
</g>
<g id="Chef 1">
<g id="Group">
<g id="Group_2">
<g id="Group_3">
<path id="Vector" opacity="0.3" d="M43 46.3335H23.0001C22.0796 46.3335 21.3334 47.0797 21.3334 48.0002C21.3334 48.9206 22.0796 49.6668 23.0001 49.6668H43C43.9205 49.6668 44.6666 48.9206 44.6666 48.0002C44.6666 47.0797 43.9205 46.3335 43 46.3335Z" fill="white"/>
<path id="Vector_2" fill-rule="evenodd" clip-rule="evenodd" d="M21.3334 34.4501C18.4501 33.7001 16.3334 31.0835 16.3334 27.9835C16.3334 24.3002 19.3168 21.3169 23.0001 21.3169C23.1834 21.3169 23.3667 21.3169 23.5501 21.3335C24.9001 17.4335 28.6167 14.6335 32.9834 14.6335C37.3333 14.6335 41.05 17.4169 42.4167 21.3169C42.6 21.3002 42.7833 21.2835 42.9667 21.2835C46.6333 21.2835 49.6333 24.2668 49.6333 27.9502C49.6333 31.0501 47.5 33.6501 44.6333 34.4001V41.2668C44.6333 42.1834 43.8833 42.9334 42.9667 42.9334H22.9667C22.0334 42.9334 21.3001 42.1834 21.3001 41.2668V34.3835L21.3334 34.4501Z" fill="white"/>
</g>
</g>
</g>
</g>
</g>
</svg>
