<svg width="44" height="66" viewBox="0 0 44 66" fill="none" xmlns="http://www.w3.org/2000/svg">
<g id="Icon  9">
<g id="Border" opacity="0.2">
<rect id="Shape" x="1" y="1" width="64" height="64" rx="16" stroke="#7767E4"/>
</g>
<g id="Chef 1">
<g id="Truck 1" clip-path="url(#clip0_1_695)">
<g id="Group">
<g id="Group_2">
<path id="Vector" opacity="0.4" d="M25.8 37.8001H25.7995C23.59 37.8001 21.7995 39.5906 21.7995 41.8001C21.7995 44.0091 23.59 45.8001 25.7995 45.7996C28.0085 45.7991 29.7995 44.0086 29.799 41.7991C29.799 39.5896 28.008 37.7991 25.799 37.7991L25.8 37.8001ZM40.2 37.8001H40.1995C37.99 37.8001 36.1995 39.5906 36.1995 41.8001C36.1995 44.0091 37.99 45.8001 40.1995 45.7996C42.4085 45.7991 44.1995 44.0086 44.199 41.7991C44.199 39.5896 42.408 37.7991 40.199 37.7991L40.2 37.8001Z" fill="#7767E4"/>
<path id="Vector_2" d="M48.2 37.8H47.4V32.395C47.3985 31.7585 47.145 31.149 46.695 30.6995L41.6995 25.704C41.25 25.2535 40.6405 25 40.0045 24.9985H37.799V22.5985C37.799 21.273 36.724 20.1985 35.399 20.1985H19.399H19.3985C18.073 20.1985 16.9985 21.273 16.9985 22.5985V38.5985C16.9985 39.9235 18.073 40.998 19.3985 40.998H20.3065C20.698 38.2945 22.987 36.198 25.798 36.198C28.609 36.198 30.925 38.291 31.317 40.998H34.679C35.0715 38.291 37.384 36.198 40.198 36.198C43.012 36.198 45.298 38.2945 45.69 40.998H48.198H48.1975C48.639 40.998 48.9975 40.6395 48.9975 40.198V38.598C48.9975 38.156 48.639 37.798 48.1975 37.798L48.2 37.8ZM45 33H37.8V27.4H40.005L45 32.395V33Z" fill="#7767E4"/>
</g>
</g>
</g>
</g>
</g>
<defs>
<clipPath id="clip0_1_695">
<rect width="32" height="32" fill="white" transform="translate(17 17)"/>
</clipPath>
</defs>
</svg>
