<svg width="198" height="198" viewBox="0 0 198 198" fill="none" xmlns="http://www.w3.org/2000/svg">
<g id="Icon  9">
<g id="Border" opacity="0.2">
<rect id="Shape" x="3" y="3" width="192" height="192" rx="16" stroke="#7767E4"/>
</g>
<g id="Hanger 1">
<g id="Group">
<path id="Vector" d="M130.3 128.999L88.4998 93.7494C80.1498 86.6995 79.0998 74.2495 86.0998 65.9495C89.4998 61.8496 94.4498 59.3496 99.7998 58.9496C109.7 58.2496 118.35 65.7495 119 75.6995C119.35 81.0495 117.3 86.2995 113.4 89.9994L106.5 82.6995C108.2 80.9995 109.15 78.6995 108.95 76.2995C108.6 71.8495 104.8 68.4995 100.35 68.7995C97.6998 68.9495 95.2498 70.1995 93.5498 72.1995C90.0498 76.2995 90.5998 82.3995 94.6998 85.8495L141.7 125.499C143.35 126.899 144.35 128.999 144.35 131.199C144.35 135.299 140.95 138.699 136.85 138.699H58.7999C56.3999 138.699 54.1499 137.549 52.7499 135.599C50.3 132.249 51 127.549 54.3499 125.099L85.6498 102.099L91.5498 110.149L66.3499 128.599H129.85L130.3 128.999Z" fill="#7767E4"/>
</g>
</g>
</g>
</svg>
