<svg width="66" height="66" viewBox="0 0 66 66" fill="none" xmlns="http://www.w3.org/2000/svg">
<g id="Icon  9">
<g id="Border" opacity="0.2">
<rect id="Shape" x="1" y="1" width="64" height="64" rx="16" stroke="#7767E4"/>
</g>
<g id="Hanger 1">
<g id="Group">
<path id="Vector" d="M43.4332 42.9998L29.4999 31.2498C26.7166 28.8998 26.3666 24.7498 28.6999 21.9832C29.8333 20.6165 31.4833 19.7832 33.2666 19.6499C36.5666 19.4165 39.4499 21.9165 39.6666 25.2332C39.7832 27.0165 39.0999 28.7665 37.7999 29.9998L35.4999 27.5665C36.0666 26.9998 36.3832 26.2332 36.3166 25.4332C36.1999 23.9498 34.9332 22.8332 33.4499 22.9332C32.5666 22.9832 31.7499 23.3998 31.1833 24.0665C30.0166 25.4332 30.1999 27.4665 31.5666 28.6165L47.2332 41.8331C47.7832 42.2998 48.1165 42.9998 48.1165 43.7331C48.1165 45.0998 46.9832 46.2331 45.6165 46.2331H19.6C18.8 46.2331 18.05 45.8498 17.5833 45.1998C16.7667 44.0831 17 42.5164 18.1166 41.6998L28.5499 34.0331L30.5166 36.7165L22.1166 42.8664H43.2832L43.4332 42.9998Z" fill="#7767E4"/>
</g>
</g>
</g>
</svg>
